<svg xmlns="http://www.w3.org/2000/svg" width="32" height="32" viewBox="0 0 32 32">
  <defs>
    <style>
      .cls-1 {
        fill: #3e3e3e;
        fill-rule: evenodd;
      }
    </style>
  </defs>
  <path id="Phone_2" class="cls-1" d="M1797.08,3628.99a3.525,3.525,0,0,1-2.51-1.04l-0.9-.9c-3.93-3.92-.77-13.22,7.19-21.17,5.49-5.47,11.84-8.87,16.58-8.87a6.428,6.428,0,0,1,4.64,1.69l0.89,0.9a3.525,3.525,0,0,1,0,5.02l-3.59,3.59a3.659,3.659,0,0,1-5.03,0l-0.9-.9a1.515,1.515,0,0,0-1.13-.43c-0.9,0-2.93.52-6.43,4.02-4.12,4.1-4.56,6.59-3.6,7.55l0.9,0.9a3.531,3.531,0,0,1,0,5.01l-3.59,3.59A3.565,3.565,0,0,1,1797.08,3628.99Zm20.36-29.96c-4.16,0-10.11,3.25-15.15,8.28-6.92,6.91-10.22,15.3-7.19,18.32l0.9,0.89a1.571,1.571,0,0,0,2.17,0l3.59-3.59a1.521,1.521,0,0,0,0-2.16l-0.9-.9c-1.02-1.02-2.72-4.09,3.6-10.4,3.07-3.06,5.71-4.61,7.86-4.61a3.563,3.563,0,0,1,2.56,1.02l0.9,0.9a1.571,1.571,0,0,0,2.17,0l3.6-3.59a1.521,1.521,0,0,0,0-2.16l-0.9-.9A4.384,4.384,0,0,0,1817.44,3599.03Z" transform="translate(-1792 -3597)"/>
</svg>
