<svg xmlns="http://www.w3.org/2000/svg" width="32" height="32" viewBox="0 0 32 32">
  <defs>
    <style>
      .cls-1 {
        fill: #3e3e3e;
        fill-rule: evenodd;
      }
    </style>
  </defs>
  <path id="Home" class="cls-1" d="M1823.11,3436.85l-13-13.02a3.088,3.088,0,0,0-4.25,0l-13,13.02a2.99,2.99,0,0,0,3.12,4.94v11.19a2.008,2.008,0,0,0,2,2.01h4a2,2,0,0,0,2-2.01v-7h8v7a2.008,2.008,0,0,0,2,2.01h4a2,2,0,0,0,2-2.01v-11.19a3.1,3.1,0,0,0,1,.18A3,3,0,0,0,1823.11,3436.85Zm-15.13-11.89a1,1,0,0,1,.71,1.7l-0.71.71-0.7-.71a1,1,0,0,1,0-1.41A0.984,0.984,0,0,1,1807.98,3424.96Zm-13.7,14.72a1.008,1.008,0,0,1,0-1.42l11.01-11.02a2.906,2.906,0,0,0,.57.84l0.71,0.71-10.88,10.89A1.034,1.034,0,0,1,1794.28,3439.68Zm19.7,13.3v-7a2,2,0,0,0-2-2.01h-8a2.008,2.008,0,0,0-2,2.01v7h-4v-12.77l10-10.01,10,10.01v12.77h-4Zm7.71-13.3a1.034,1.034,0,0,1-1.41,0l-10.88-10.89,0.71-.71a3.12,3.12,0,0,0,.57-0.84l11.01,11.02A1.008,1.008,0,0,1,1821.69,3439.68Zm-13.71-5.72a4.005,4.005,0,1,0,4,4.01A4.014,4.014,0,0,0,1807.98,3433.96Zm0,6.01a2,2,0,1,1,2-2A2.006,2.006,0,0,1,1807.98,3439.97Z" transform="translate(-1792 -3423)"/>
</svg>
