<svg xmlns="http://www.w3.org/2000/svg" width="32" height="32" viewBox="0 0 32 32">
  <defs>
    <style>
      .cls-1 {
        fill: #3e3e3e;
        fill-rule: evenodd;
      }
    </style>
  </defs>
  <path id="Mail_2" class="cls-1" d="M1791.43,3531.18l29.99-21h0.01a0.031,0.031,0,0,0,.02-0.01,0.59,0.59,0,0,0,.08-0.04c0.03-.01.06-0.03,0.09-0.04s0.08-.03.12-0.05,0.07-.01.11-0.02c0.02,0,.04-0.01.07-0.01a0.037,0.037,0,0,0,.03-0.01,0.675,0.675,0,0,1,.14.02,0.34,0.34,0,0,1,.1.01,0.3,0.3,0,0,1,.1.02c0.03,0.01.06,0.03,0.09,0.04s0.08,0.03.12,0.05c0.01,0,.01.01,0.02,0.01a0.01,0.01,0,0,0,.01.01c0.02,0.01.02,0.02,0.04,0.03a0.456,0.456,0,0,0,.1.07c0.01,0.01.01,0.02,0.02,0.03a1.063,1.063,0,0,1,.09.11,0.555,0.555,0,0,1,.06.08l0.06,0.09c0.01,0.02.01,0.04,0.02,0.06,0.01,0.04.02,0.07,0.03,0.11a0.142,0.142,0,0,1,.02.06,0.34,0.34,0,0,1,.01.1,0.41,0.41,0,0,1,.01.11,0.272,0.272,0,0,1,0,.09l-2.99,29.99a0.99,0.99,0,0,1-.53.79,0.981,0.981,0,0,1-.94-0.01l-11-6a0.147,0.147,0,0,1-.06-0.05l-3.62,5.71a1.344,1.344,0,0,1-.11.14c-0.02.01-.02,0.03-0.04,0.04a1.065,1.065,0,0,1-.28.19,0.145,0.145,0,0,1-.07.02,0.8,0.8,0,0,1-.34.07h0a1.03,1.03,0,0,1-.35-0.06c-0.03-.02-0.06-0.03-0.09-0.05a0.418,0.418,0,0,1-.1-0.04,0.462,0.462,0,0,1-.07-0.07,1.028,1.028,0,0,1-.15-0.14,0.906,0.906,0,0,1-.11-0.16,1.22,1.22,0,0,1-.07-0.17,0.711,0.711,0,0,1-.04-0.2,0.425,0.425,0,0,1-.02-0.11v-8h-10A0.994,0.994,0,0,1,1791.43,3531.18Zm12.58,6.37,10.9-17.22-10.9,12.05v5.17Zm14.15,1.84,2.42-24.28-12.05,19.03Zm-15.6-8.4,12.75-14.09-20.13,14.09h7.38Z" transform="translate(-1791 -3510)"/>
</svg>
